<svg xml:space="preserve" viewBox="0 0 100 100" y="0" x="0" xmlns="http://www.w3.org/2000/svg" id="圖層_1" version="1.1" style="height: 100%; width: 100%; background: rgb(255, 255, 255);" width="200px" height="200px"><g style="transform-origin: 50% 50% 0px; transform: rotate(0deg) scale(0.8);" class="ldl-scale"><g class="ldl-ani"><g class="ldl-layer"><g class="ldl-ani" style="transform-origin: 50px 50px 0px; transform: matrix(0.01, 0, 0, 0.01, 0, 0); animation: 1.11111s linear 0.462963s 1 normal forwards running bounce-in-e64bec58-82d6-41d0-9591-fca1eed6f443;"><ellipse stroke-miterlimit="10" stroke-width="3.5" stroke="#333" fill="none" ry="12.115" rx="26.167" cy="50.53" cx="43.462" style="stroke: rgb(51, 51, 51);"></ellipse></g></g><g class="ldl-layer"><g class="ldl-ani" style="transform-origin: 50px 50px 0px; transform: matrix(0.01, 0, 0, 0.01, 0, 0); animation: 1.11111s linear 0.37037s 1 normal forwards running bounce-in-e64bec58-82d6-41d0-9591-fca1eed6f443;"><path stroke-miterlimit="10" stroke-width="3.5" stroke="#333" fill="none" d="M69.629 50.53c0 27.552-11.715 37.885-26.167 37.885s-26.167-9-26.167-37.885" style="stroke: rgb(51, 51, 51);"></path></g></g><g class="ldl-layer"><g class="ldl-ani" style="transform-origin: 50px 50px 0px; transform: matrix(0.01, 0, 0, 0.01, 0, 0); animation: 1.11111s linear 0.277778s 1 normal forwards running bounce-in-e64bec58-82d6-41d0-9591-fca1eed6f443;"><path stroke-miterlimit="10" stroke-width="3.5" stroke="#333" fill="none" d="M69.052 60.439c.294-2.599.727-5.19 2.516-6.959 1.789-1.769 4.622-2.494 6.958-1.562 2.536 1.012 4.102 3.783 4.176 6.512s-1.147 5.37-2.867 7.49c-.779.96-1.675 1.844-2.743 2.468-2.037 1.19-4.497 1.337-6.753 2.024-2.256.687-4.435 2.214-5.404 4.67" style="stroke: rgb(51, 51, 51);"></path></g></g><g class="ldl-layer"><g class="ldl-ani"><g><g class="ldl-layer"><g class="ldl-ani" style="transform-origin: 50px 50px 0px; transform: matrix(0.01, 0, 0, 0.01, 0, 0); animation: 1.11111s linear 0.185185s 1 normal forwards running bounce-in-e64bec58-82d6-41d0-9591-fca1eed6f443;"><path fill="#333" d="M30.306 19.586c-.938 1.474-1.137 3.02-.859 4.438.131.711.362 1.394.657 2.039.297.642.662 1.232 1.094 1.854.859 1.222 1.893 2.416 2.946 3.739a32.05 32.05 0 0 1 1.555 2.117c.256.375.478.785.707 1.19.235.401.451.813.639 1.239 1.579 3.37 2.07 7.24 1.368 10.823-.685 3.577-2.511 6.886-5.199 9.065 1.136-3.257 1.722-6.365 1.677-9.405a20.866 20.866 0 0 0-1.929-8.594c-1.109-2.616-3.348-5.09-4.862-8.492-.743-1.682-1.173-3.724-.849-5.612.303-1.895 1.437-3.705 3.055-4.401z" style="fill: rgb(51, 51, 51);"></path></g></g></g></g></g><g class="ldl-layer"><g class="ldl-ani"><g><g class="ldl-layer"><g class="ldl-ani" style="transform-origin: 50px 50px 0px; transform: matrix(0.01, 0, 0, 0.01, 0, 0); animation: 1.11111s linear 0.0925926s 1 normal forwards running bounce-in-e64bec58-82d6-41d0-9591-fca1eed6f443;"><path fill="#333" d="M38.708 13.333c-.938 1.474-1.137 3.02-.859 4.438.131.711.362 1.394.657 2.039.297.642.662 1.232 1.094 1.854.859 1.222 1.893 2.416 2.946 3.739a32.05 32.05 0 0 1 1.555 2.117c.256.375.478.785.707 1.19.235.401.451.813.639 1.239 1.579 3.37 2.07 7.24 1.368 10.823-.685 3.577-2.511 6.886-5.199 9.065 1.136-3.257 1.723-6.365 1.677-9.405a20.866 20.866 0 0 0-1.929-8.594c-1.109-2.616-3.348-5.09-4.862-8.492-.743-1.682-1.173-3.724-.849-5.612.302-1.896 1.437-3.706 3.055-4.401z" style="fill: rgb(51, 51, 51);"></path></g></g></g></g></g><g class="ldl-layer"><g class="ldl-ani"><g><g class="ldl-layer"><g class="ldl-ani" style="transform-origin: 50px 50px 0px; transform: matrix(0.01, 0, 0, 0.01, 0, 0); animation: 1.11111s linear 0s 1 normal forwards running bounce-in-e64bec58-82d6-41d0-9591-fca1eed6f443;"><path fill="#333" d="M47.11 7.585c-.938 1.474-1.137 3.02-.859 4.438.131.711.362 1.394.657 2.039.297.642.662 1.232 1.094 1.854.859 1.222 1.893 2.416 2.946 3.739a32.05 32.05 0 0 1 1.555 2.117c.256.375.478.785.707 1.19.235.401.451.813.639 1.239 1.579 3.37 2.07 7.24 1.368 10.823-.685 3.577-2.511 6.886-5.199 9.065 1.136-3.257 1.722-6.365 1.677-9.405a20.866 20.866 0 0 0-1.929-8.594c-1.109-2.616-3.348-5.09-4.862-8.492-.743-1.682-1.173-3.724-.849-5.612.302-1.896 1.436-3.706 3.055-4.401z" style="fill: rgb(51, 51, 51);"></path></g></g></g></g></g><metadata xmlns:d="https://loading.io/stock/">
<d:name>coffee</d:name>
<d:tags>coffee,cafe,tea,cup,drink,cafeteria,latte,cappuccino,espresso,macchiato,hot</d:tags>
<d:license>by</d:license>
<d:slug>2u08q4</d:slug>
</metadata></g></g>
<style>
@keyframes bounce-in-e64bec58-82d6-41d0-9591-fca1eed6f443
{
  0% {
    animation-timing-function: cubic-bezier(0.0383,0.3388,0.0421,0.6652);
    transform: matrix(0.01,0,0,0.01,0,0);
    opacity: 1;
  }
  4.7% {
    animation-timing-function: cubic-bezier(0.3296,0.3336,0.5772,0.6672);
    transform: matrix(0.556,0,0,0.556,0,0);
    opacity: 1;
  }
  8.4% {
    animation-timing-function: cubic-bezier(0.0781,0.1617,0.0874,0.9301);
    transform: matrix(0.979,0,0,0.979,0,0);
    opacity: 1;
  }
  12.4% {
    animation-timing-function: cubic-bezier(0.8341,0.1496,0.8634,0.7673);
    transform: matrix(1.153,0,0,1.153,0,0);
    opacity: 1;
  }
  16.3% {
    animation-timing-function: cubic-bezier(0.3264,0.3332,0.5758,0.6695);
    transform: matrix(1.008,0,0,1.008,0,0);
    opacity: 1;
  }
  21.2% {
    animation-timing-function: cubic-bezier(0.0921,0.1883,0.3277,1);
    transform: matrix(0.704,0,0,0.704,0,0);
    opacity: 1;
  }
  24.5% {
    animation-timing-function: cubic-bezier(0.6905,0.0944,0.8759,0.7624);
    transform: matrix(0.626,0,0,0.626,0,0);
    opacity: 1;
  }
  27.7% {
    animation-timing-function: cubic-bezier(0.3688,0.332,0.624,0.6684);
    transform: matrix(0.704,0,0,0.704,0,0);
    opacity: 1;
  }
  32.6% {
    animation-timing-function: cubic-bezier(0.1368,0.2364,0.2451,0.9049);
    transform: matrix(0.958,0,0,0.958,0,0);
    opacity: 1;
  }
  37.4% {
    animation-timing-function: cubic-bezier(0.5936,0.0846,0.3495,1);
    transform: matrix(1.085,0,0,1.085,0,0);
    opacity: 1;
  }
  49.5% {
    animation-timing-function: cubic-bezier(0.5522,0.0981,0.3807,1);
    transform: matrix(0.802,0,0,0.802,0,0);
    opacity: 1;
  }
  62.4% {
    animation-timing-function: cubic-bezier(0.4497,0.1349,0.4911,1);
    transform: matrix(1.044,0,0,1.044,0,0);
    opacity: 1;
  }
  74.1% {
    animation-timing-function: cubic-bezier(0.429,0,0.5239,1);
    transform: matrix(0.914,0,0,0.914,0,0);
    opacity: 1;
  }
  87% {
    animation-timing-function: cubic-bezier(0.3501,0,0.6422,1);
    transform: matrix(1.013,0,0,1.013,0,0);
    opacity: 1;
  }
  95.8% {
    animation-timing-function: cubic-bezier(0.3653,0,0.6776,1);
    transform: matrix(0.992,0,0,0.992,0,0);
    opacity: 1;
  }
  100% {
    transform: matrix(1,0,0,1,0,0);
    opacity: 1;
  }
}</style></svg>